<?xml version="1.0" standalone="no"?>
<!DOCTYPE svg PUBLIC "-//W3C//DTD SVG 20010904//EN"
 "http://www.w3.org/TR/2001/REC-SVG-20010904/DTD/svg10.dtd">
<svg version="1.0" xmlns="http://www.w3.org/2000/svg"
 width="1566.000000pt" height="1566.000000pt" viewBox="0 0 1566.000000 1566.000000"
 preserveAspectRatio="xMidYMid meet">
<metadata>
Created by potrace 1.11, written by Peter Selinger 2001-2013
</metadata>
<g transform="translate(0.000000,1566.000000) scale(0.100000,-0.100000)"
fill="#000000" stroke="none">
<path d="M8847 14512 c-9 -2 -17 -7 -18 -10 0 -4 -2 -47 -4 -97 -6 -153 -13
-210 -34 -266 -11 -30 -23 -70 -27 -89 -4 -19 -9 -42 -11 -50 -2 -8 -5 -156
-7 -327 -1 -172 -5 -316 -8 -319 -4 -3 -18 2 -33 12 l-27 18 6 -80 c4 -43 9
-99 11 -124 2 -25 7 -79 10 -120 3 -41 8 -95 10 -120 3 -25 7 -81 10 -125 3
-44 8 -96 10 -115 3 -32 7 -78 20 -240 3 -30 7 -80 10 -110 3 -30 7 -80 9
-110 4 -54 14 -165 22 -245 5 -54 13 -283 19 -540 2 -115 8 -291 12 -390 14
-328 9 -528 -15 -640 -25 -121 -40 -203 -47 -270 -4 -27 -8 -60 -10 -73 -10
-62 -19 -265 -17 -422 6 -564 7 -579 20 -568 7 6 14 9 16 7 2 -2 11 -44 20
-94 97 -507 299 -785 502 -689 74 35 163 155 225 302 48 116 108 336 126 465
3 21 6 46 8 55 2 9 4 28 4 41 1 24 2 24 26 -9 209 -283 564 -176 661 200 22
85 22 89 23 131 1 32 5 38 34 50 17 7 65 27 105 46 41 18 75 33 77 33 4 0 51
20 150 65 17 7 46 20 65 29 19 8 118 50 220 94 102 44 248 107 325 140 271
116 750 323 780 337 17 7 194 84 395 170 201 86 379 162 396 170 17 8 208 90
425 184 523 224 763 328 827 357 29 13 55 24 58 24 3 0 29 11 57 24 29 13 149
65 267 116 118 50 233 100 255 110 22 10 200 86 395 170 195 83 366 157 380
164 14 8 35 29 48 46 37 54 27 116 -28 173 -329 341 -512 504 -855 761 -154
116 -399 285 -510 353 -11 7 -63 38 -115 70 -52 32 -104 63 -115 69 -11 6 -83
46 -160 89 -450 250 -1075 519 -1510 650 -66 19 -134 40 -152 46 -18 5 -40 12
-50 14 -10 2 -81 19 -158 39 -128 32 -340 81 -390 90 -11 2 -56 12 -100 21
-44 9 -91 19 -105 21 -14 2 -45 8 -70 14 -49 10 -300 58 -346 66 -16 3 -76 14
-134 24 -58 11 -116 22 -130 24 -14 2 -36 7 -50 10 -14 3 -43 8 -65 11 -22 3
-67 10 -100 15 -33 5 -78 12 -100 15 -22 3 -53 7 -70 10 -16 2 -59 7 -95 11
-36 3 -67 8 -70 9 -3 2 -42 7 -85 10 -44 4 -88 9 -98 11 -10 2 -53 6 -95 9
-42 4 -95 8 -117 11 -22 2 -83 6 -135 9 -52 4 -113 8 -135 11 -22 2 -148 6
-280 9 -132 4 -263 7 -291 8 -28 1 -58 1 -67 -1z"/>
<path d="M7307 12124 c-1 -1 -72 -5 -157 -9 -85 -4 -171 -8 -190 -10 -19 -2
-75 -6 -125 -10 -49 -4 -101 -8 -115 -10 -14 -1 -59 -6 -100 -10 -41 -4 -88
-9 -105 -11 -16 -2 -55 -6 -85 -9 -30 -4 -66 -8 -80 -10 -14 -3 -50 -7 -80
-10 -30 -4 -62 -8 -70 -10 -8 -2 -37 -7 -65 -10 -95 -12 -400 -66 -540 -95
-245 -52 -326 -70 -369 -81 -22 -6 -48 -12 -56 -14 -35 -7 -252 -66 -277 -76
-16 -6 -30 -10 -33 -10 -7 1 -88 -23 -260 -76 -291 -90 -649 -225 -940 -353
-150 -67 -516 -246 -615 -302 -22 -12 -87 -49 -145 -82 -203 -114 -534 -326
-685 -440 -95 -71 -239 -181 -249 -191 -6 -6 -31 -26 -56 -45 -25 -19 -47 -37
-50 -40 -3 -3 -32 -28 -65 -55 -33 -27 -69 -59 -80 -70 -11 -11 -38 -35 -60
-54 -152 -128 -519 -516 -635 -670 -14 -19 -46 -60 -72 -92 -26 -32 -87 -116
-136 -186 -326 -469 -554 -962 -682 -1473 -21 -85 -41 -171 -44 -190 -8 -47
-14 -81 -19 -105 -3 -11 -8 -45 -12 -75 -4 -30 -9 -64 -11 -75 -2 -11 -7 -45
-10 -75 -3 -30 -9 -91 -14 -135 -8 -83 -6 -627 3 -680 3 -16 8 -55 11 -85 43
-442 209 -984 436 -1425 315 -611 716 -1109 1317 -1636 76 -67 288 -234 398
-315 135 -100 445 -307 525 -353 52 -29 82 -46 98 -56 317 -192 831 -441 1197
-580 39 -14 84 -32 100 -40 120 -52 673 -231 880 -283 44 -12 105 -28 137 -36
31 -8 67 -17 80 -20 12 -2 73 -16 133 -31 189 -45 586 -122 720 -140 22 -3 55
-8 73 -11 41 -6 100 -15 132 -19 14 -1 43 -5 65 -8 22 -4 65 -9 95 -12 30 -4
66 -8 80 -10 14 -2 59 -7 100 -10 41 -4 89 -9 105 -11 17 -2 64 -6 105 -9 41
-4 93 -8 115 -10 36 -3 188 -12 370 -21 92 -5 736 -4 845 1 145 6 393 22 480
30 30 3 80 7 110 10 91 8 174 16 200 20 14 2 84 11 155 20 131 16 170 22 215
30 14 2 43 7 65 10 43 6 67 10 157 25 32 6 68 12 80 14 23 4 173 32 214 40
196 39 611 139 729 177 17 5 71 21 120 35 179 51 575 187 783 270 459 183 941
423 1317 657 87 54 337 219 345 227 3 3 46 34 95 70 94 67 288 216 340 261 16
14 82 70 145 124 131 112 430 408 540 535 41 47 80 91 87 98 7 7 34 41 60 75
26 34 50 64 53 67 3 3 19 23 35 45 17 22 32 42 35 45 19 17 183 254 262 380
87 138 308 559 308 587 0 2 11 28 24 56 26 59 114 299 144 397 44 142 101 378
117 484 3 21 7 48 10 60 5 22 10 58 20 141 4 28 8 60 10 73 18 109 24 490 12
682 -35 553 -198 1124 -466 1640 -192 369 -474 772 -747 1067 l-49 53 -150
-65 c-82 -36 -159 -70 -170 -75 -11 -5 -105 -46 -210 -91 -170 -73 -197 -82
-260 -84 -177 -7 -382 -97 -562 -247 -27 -23 -126 -71 -295 -142 -139 -59
-266 -114 -283 -121 -16 -7 -122 -52 -235 -100 -113 -48 -218 -93 -235 -100
-16 -7 -102 -43 -190 -80 -88 -37 -178 -75 -200 -85 -22 -10 -112 -48 -200
-85 -227 -95 -1334 -564 -1370 -580 -16 -7 -122 -52 -235 -99 -113 -48 -214
-91 -225 -96 -77 -35 -136 -60 -141 -60 -3 0 -24 -9 -47 -19 -23 -10 -231 -99
-462 -196 -231 -98 -424 -181 -429 -186 -6 -5 -16 -9 -24 -9 -7 0 -32 -9 -56
-20 -24 -10 -119 -51 -212 -90 -93 -40 -192 -84 -220 -100 l-52 -29 0 1832 0
1832 23 65 c29 83 34 104 41 187 7 83 -8 172 -40 233 l-23 45 -1 495 c0 272
-1 505 -1 518 l-1 23 -186 -3 c-102 -1 -186 -3 -187 -4z"/>
</g>
</svg>
